<?xml version="1.0" encoding="utf-8"?>
<!-- Generator: Adobe Illustrator 19.2.1, SVG Export Plug-In . SVG Version: 6.00 Build 0)  -->
<svg version="1.1" id="Layer_1" xmlns="http://www.w3.org/2000/svg" xmlns:xlink="http://www.w3.org/1999/xlink" x="0px" y="0px"
	 viewBox="0 0 38 38" style="enable-background:new 0 0 38 38;" xml:space="preserve">
<style type="text/css">
	.st0{fill:#252625;}
</style>
<g>
	<path class="st0" d="M19,5.9c4.3,0,4.8,0,6.5,0.1c1.6,0.1,2.4,0.3,3,0.6c0.7,0.3,1.3,0.6,1.8,1.2c0.6,0.6,0.9,1.1,1.2,1.8
		c0.2,0.6,0.5,1.4,0.6,3c0.1,1.7,0.1,2.2,0.1,6.5s0,4.8-0.1,6.5c-0.1,1.6-0.3,2.4-0.6,3c-0.3,0.7-0.6,1.3-1.2,1.8
		c-0.6,0.6-1.1,0.9-1.8,1.2c-0.6,0.2-1.4,0.5-3,0.6c-1.7,0.1-2.2,0.1-6.5,0.1s-4.8,0-6.5-0.1c-1.6-0.1-2.4-0.3-3-0.6
		c-0.7-0.3-1.3-0.6-1.8-1.2c-0.6-0.6-0.9-1.1-1.2-1.8c-0.2-0.6-0.5-1.4-0.6-3c-0.1-1.7-0.1-2.2-0.1-6.5s0-4.8,0.1-6.5
		c0.1-1.6,0.3-2.4,0.6-3c0.3-0.7,0.6-1.3,1.2-1.8c0.6-0.6,1.1-0.9,1.8-1.2C10.1,6.3,11,6,12.5,6C14.2,5.9,14.7,5.9,19,5.9 M19,3
		c-4.3,0-4.9,0-6.6,0.1c-1.7,0.1-2.9,0.3-3.9,0.7c-1.1,0.4-1.9,1-2.8,1.8C4.8,6.6,4.3,7.5,3.8,8.5c-0.4,1-0.7,2.2-0.7,3.9
		C3,14.1,3,14.7,3,19c0,4.3,0,4.9,0.1,6.6c0.1,1.7,0.3,2.9,0.7,3.9c0.4,1.1,1,1.9,1.8,2.8c0.9,0.9,1.8,1.4,2.8,1.8
		c1,0.4,2.2,0.7,3.9,0.7C14.1,35,14.7,35,19,35s4.9,0,6.6-0.1c1.7-0.1,2.9-0.3,3.9-0.7c1.1-0.4,1.9-1,2.8-1.8
		c0.9-0.9,1.4-1.8,1.8-2.8c0.4-1,0.7-2.2,0.7-3.9C35,23.9,35,23.3,35,19s0-4.9-0.1-6.6c-0.1-1.7-0.3-2.9-0.7-3.9
		c-0.4-1.1-1-1.9-1.8-2.8c-0.9-0.9-1.8-1.4-2.8-1.8c-1-0.4-2.2-0.7-3.9-0.7C23.9,3,23.3,3,19,3L19,3z"/>
	<path class="st0" d="M19,10.8c-4.5,0-8.2,3.7-8.2,8.2s3.7,8.2,8.2,8.2s8.2-3.7,8.2-8.2S23.5,10.8,19,10.8z M19,24.3
		c-2.9,0-5.3-2.4-5.3-5.3s2.4-5.3,5.3-5.3s5.3,2.4,5.3,5.3S21.9,24.3,19,24.3z"/>
	<circle class="st0" cx="27.5" cy="10.5" r="1.9"/>
</g>
</svg>
